<mxfile host="Electron" modified="2023-12-04T17:24:01.009Z" agent="Mozilla/5.0 (X11; Linux x86_64) AppleWebKit/537.36 (KHTML, like Gecko) draw.io/22.0.3 Chrome/118.0.5993.54 Electron/27.0.0 Safari/537.36" etag="Frbr6eIcRgSfLbW1EPfu" version="22.0.3" type="device">
  <diagram name="Page-1" id="S55bfGEMCrbH94iu4lb3">
    <mxGraphModel dx="916" dy="669" grid="1" gridSize="10" guides="1" tooltips="1" connect="1" arrows="1" fold="1" page="1" pageScale="1" pageWidth="850" pageHeight="1100" math="0" shadow="0">
      <root>
        <mxCell id="0" />
        <mxCell id="1" parent="0" />
        <mxCell id="kccejqt1dc7XrH10TTn1-4" style="edgeStyle=orthogonalEdgeStyle;rounded=0;orthogonalLoop=1;jettySize=auto;html=1;exitX=0.5;exitY=1;exitDx=0;exitDy=0;entryX=0.5;entryY=0;entryDx=0;entryDy=0;" edge="1" parent="1" source="kccejqt1dc7XrH10TTn1-2" target="kccejqt1dc7XrH10TTn1-3">
          <mxGeometry relative="1" as="geometry" />
        </mxCell>
        <mxCell id="kccejqt1dc7XrH10TTn1-2" value="Начало" style="rounded=1;whiteSpace=wrap;html=1;fillColor=#d5e8d4;strokeColor=#82b366;" vertex="1" parent="1">
          <mxGeometry x="450" y="40" width="60" height="40" as="geometry" />
        </mxCell>
        <mxCell id="kccejqt1dc7XrH10TTn1-7" style="edgeStyle=orthogonalEdgeStyle;rounded=0;orthogonalLoop=1;jettySize=auto;html=1;exitX=0;exitY=0.5;exitDx=0;exitDy=0;entryX=0;entryY=0.5;entryDx=0;entryDy=0;" edge="1" parent="1" source="kccejqt1dc7XrH10TTn1-3" target="kccejqt1dc7XrH10TTn1-6">
          <mxGeometry relative="1" as="geometry">
            <Array as="points">
              <mxPoint x="320" y="160" />
              <mxPoint x="320" y="560" />
            </Array>
          </mxGeometry>
        </mxCell>
        <mxCell id="kccejqt1dc7XrH10TTn1-10" style="edgeStyle=orthogonalEdgeStyle;rounded=0;orthogonalLoop=1;jettySize=auto;html=1;exitX=1;exitY=0.5;exitDx=0;exitDy=0;entryX=0;entryY=0.5;entryDx=0;entryDy=0;" edge="1" parent="1" source="kccejqt1dc7XrH10TTn1-3" target="kccejqt1dc7XrH10TTn1-9">
          <mxGeometry relative="1" as="geometry" />
        </mxCell>
        <mxCell id="kccejqt1dc7XrH10TTn1-3" value="В очереди&lt;br&gt;больше одного&lt;br&gt;элемента?" style="rhombus;whiteSpace=wrap;html=1;fillColor=#e1d5e7;strokeColor=#9673a6;" vertex="1" parent="1">
          <mxGeometry x="400" y="120" width="160" height="80" as="geometry" />
        </mxCell>
        <mxCell id="kccejqt1dc7XrH10TTn1-6" value="Конец" style="rounded=1;whiteSpace=wrap;html=1;fillColor=#d5e8d4;strokeColor=#82b366;" vertex="1" parent="1">
          <mxGeometry x="450" y="540" width="60" height="40" as="geometry" />
        </mxCell>
        <mxCell id="kccejqt1dc7XrH10TTn1-12" style="edgeStyle=orthogonalEdgeStyle;rounded=0;orthogonalLoop=1;jettySize=auto;html=1;exitX=0.5;exitY=1;exitDx=0;exitDy=0;entryX=0.5;entryY=0;entryDx=0;entryDy=0;" edge="1" parent="1" source="kccejqt1dc7XrH10TTn1-9" target="kccejqt1dc7XrH10TTn1-11">
          <mxGeometry relative="1" as="geometry" />
        </mxCell>
        <mxCell id="kccejqt1dc7XrH10TTn1-9" value="Вытащить и сохранить первый элемент очереди" style="rounded=1;whiteSpace=wrap;html=1;fillColor=#dae8fc;strokeColor=#6c8ebf;" vertex="1" parent="1">
          <mxGeometry x="600" y="120" width="120" height="80" as="geometry" />
        </mxCell>
        <mxCell id="kccejqt1dc7XrH10TTn1-14" style="edgeStyle=orthogonalEdgeStyle;rounded=0;orthogonalLoop=1;jettySize=auto;html=1;exitX=0;exitY=0.5;exitDx=0;exitDy=0;entryX=1;entryY=0.5;entryDx=0;entryDy=0;" edge="1" parent="1" source="kccejqt1dc7XrH10TTn1-11" target="kccejqt1dc7XrH10TTn1-13">
          <mxGeometry relative="1" as="geometry" />
        </mxCell>
        <mxCell id="kccejqt1dc7XrH10TTn1-18" style="edgeStyle=orthogonalEdgeStyle;rounded=0;orthogonalLoop=1;jettySize=auto;html=1;exitX=0.5;exitY=1;exitDx=0;exitDy=0;entryX=0.5;entryY=0;entryDx=0;entryDy=0;" edge="1" parent="1" source="kccejqt1dc7XrH10TTn1-11" target="kccejqt1dc7XrH10TTn1-17">
          <mxGeometry relative="1" as="geometry" />
        </mxCell>
        <mxCell id="kccejqt1dc7XrH10TTn1-11" value="В очереди&lt;br&gt;больше одного&lt;br&gt;элемента?" style="rhombus;whiteSpace=wrap;html=1;fillColor=#e1d5e7;strokeColor=#9673a6;" vertex="1" parent="1">
          <mxGeometry x="580" y="240" width="160" height="80" as="geometry" />
        </mxCell>
        <mxCell id="kccejqt1dc7XrH10TTn1-15" style="edgeStyle=orthogonalEdgeStyle;rounded=0;orthogonalLoop=1;jettySize=auto;html=1;exitX=0.5;exitY=0;exitDx=0;exitDy=0;entryX=0;entryY=0;entryDx=0;entryDy=0;" edge="1" parent="1" source="kccejqt1dc7XrH10TTn1-13" target="kccejqt1dc7XrH10TTn1-11">
          <mxGeometry relative="1" as="geometry">
            <Array as="points">
              <mxPoint x="460" y="220" />
              <mxPoint x="620" y="220" />
            </Array>
          </mxGeometry>
        </mxCell>
        <mxCell id="kccejqt1dc7XrH10TTn1-13" value="Вытащить первый элемент очереди и добавить его в конец другой, временной очереди" style="rounded=1;whiteSpace=wrap;html=1;fillColor=#dae8fc;strokeColor=#6c8ebf;" vertex="1" parent="1">
          <mxGeometry x="380" y="240" width="160" height="80" as="geometry" />
        </mxCell>
        <mxCell id="kccejqt1dc7XrH10TTn1-23" style="edgeStyle=orthogonalEdgeStyle;rounded=0;orthogonalLoop=1;jettySize=auto;html=1;exitX=0.5;exitY=0;exitDx=0;exitDy=0;entryX=0;entryY=0;entryDx=0;entryDy=0;" edge="1" parent="1" source="kccejqt1dc7XrH10TTn1-16" target="kccejqt1dc7XrH10TTn1-17">
          <mxGeometry relative="1" as="geometry">
            <Array as="points">
              <mxPoint x="460" y="340" />
              <mxPoint x="620" y="340" />
            </Array>
          </mxGeometry>
        </mxCell>
        <mxCell id="kccejqt1dc7XrH10TTn1-16" value="Вытащить первый элемент временной очереди и добавить его в конец исходной очереди" style="rounded=1;whiteSpace=wrap;html=1;fillColor=#dae8fc;strokeColor=#6c8ebf;" vertex="1" parent="1">
          <mxGeometry x="380" y="360" width="160" height="80" as="geometry" />
        </mxCell>
        <mxCell id="kccejqt1dc7XrH10TTn1-21" style="edgeStyle=orthogonalEdgeStyle;rounded=0;orthogonalLoop=1;jettySize=auto;html=1;exitX=0.5;exitY=1;exitDx=0;exitDy=0;entryX=0.5;entryY=0;entryDx=0;entryDy=0;" edge="1" parent="1" source="kccejqt1dc7XrH10TTn1-17" target="kccejqt1dc7XrH10TTn1-19">
          <mxGeometry relative="1" as="geometry" />
        </mxCell>
        <mxCell id="kccejqt1dc7XrH10TTn1-22" style="edgeStyle=orthogonalEdgeStyle;rounded=0;orthogonalLoop=1;jettySize=auto;html=1;exitX=0;exitY=0.5;exitDx=0;exitDy=0;entryX=1;entryY=0.5;entryDx=0;entryDy=0;" edge="1" parent="1" source="kccejqt1dc7XrH10TTn1-17" target="kccejqt1dc7XrH10TTn1-16">
          <mxGeometry relative="1" as="geometry" />
        </mxCell>
        <mxCell id="kccejqt1dc7XrH10TTn1-17" value="Во временной&lt;br&gt;очереди остались&lt;br&gt;элементы?" style="rhombus;whiteSpace=wrap;html=1;fillColor=#e1d5e7;strokeColor=#9673a6;" vertex="1" parent="1">
          <mxGeometry x="580" y="360" width="160" height="80" as="geometry" />
        </mxCell>
        <mxCell id="kccejqt1dc7XrH10TTn1-20" style="edgeStyle=orthogonalEdgeStyle;rounded=0;orthogonalLoop=1;jettySize=auto;html=1;exitX=0.5;exitY=1;exitDx=0;exitDy=0;entryX=1;entryY=0.5;entryDx=0;entryDy=0;" edge="1" parent="1" source="kccejqt1dc7XrH10TTn1-19" target="kccejqt1dc7XrH10TTn1-6">
          <mxGeometry relative="1" as="geometry" />
        </mxCell>
        <mxCell id="kccejqt1dc7XrH10TTn1-19" value="Добавить в конец очереди первоначально сохраненный элемент" style="rounded=1;whiteSpace=wrap;html=1;fillColor=#dae8fc;strokeColor=#6c8ebf;" vertex="1" parent="1">
          <mxGeometry x="560" y="480" width="200" height="60" as="geometry" />
        </mxCell>
        <mxCell id="kccejqt1dc7XrH10TTn1-24" value="Нет" style="text;html=1;strokeColor=none;fillColor=none;align=center;verticalAlign=middle;whiteSpace=wrap;rounded=0;" vertex="1" parent="1">
          <mxGeometry x="360" y="140" width="40" height="20" as="geometry" />
        </mxCell>
        <mxCell id="kccejqt1dc7XrH10TTn1-25" value="Нет" style="text;html=1;strokeColor=none;fillColor=none;align=center;verticalAlign=middle;whiteSpace=wrap;rounded=0;" vertex="1" parent="1">
          <mxGeometry x="660" y="330" width="30" height="20" as="geometry" />
        </mxCell>
        <mxCell id="kccejqt1dc7XrH10TTn1-26" value="Нет" style="text;html=1;strokeColor=none;fillColor=none;align=center;verticalAlign=middle;whiteSpace=wrap;rounded=0;" vertex="1" parent="1">
          <mxGeometry x="660" y="450" width="30" height="20" as="geometry" />
        </mxCell>
        <mxCell id="kccejqt1dc7XrH10TTn1-27" value="Да" style="text;html=1;strokeColor=none;fillColor=none;align=center;verticalAlign=middle;whiteSpace=wrap;rounded=0;" vertex="1" parent="1">
          <mxGeometry x="540" y="260" width="40" height="20" as="geometry" />
        </mxCell>
        <mxCell id="kccejqt1dc7XrH10TTn1-28" value="Да" style="text;html=1;strokeColor=none;fillColor=none;align=center;verticalAlign=middle;whiteSpace=wrap;rounded=0;" vertex="1" parent="1">
          <mxGeometry x="540" y="380" width="40" height="20" as="geometry" />
        </mxCell>
        <mxCell id="kccejqt1dc7XrH10TTn1-29" value="Да" style="text;html=1;strokeColor=none;fillColor=none;align=center;verticalAlign=middle;whiteSpace=wrap;rounded=0;" vertex="1" parent="1">
          <mxGeometry x="560" y="140" width="40" height="20" as="geometry" />
        </mxCell>
      </root>
    </mxGraphModel>
  </diagram>
</mxfile>
